<?xml version="1.0" encoding="UTF-8"?>
<svg width="831px" height="785px" viewBox="0 0 831 785" version="1.1" xmlns="http://www.w3.org/2000/svg" xmlns:xlink="http://www.w3.org/1999/xlink">
    <!-- Generator: Sketch 51.2 (57519) - http://www.bohemiancoding.com/sketch -->
    <title>Artboard 3</title>
    <desc>Created with Sketch.</desc>
    <defs>
        <radialGradient cx="31.5676596%" cy="57.4525833%" fx="31.5676596%" fy="57.4525833%" r="62.0041211%" gradientTransform="translate(0.315677,0.574526),scale(0.965283,1.000000),rotate(-41.598160),translate(-0.315677,-0.574526)" id="radialGradient-1">
            <stop stop-color="#EFF3F6" offset="0%"></stop>
            <stop stop-color="#FEFEFE" offset="100%"></stop>
            <stop stop-color="#FFFFFF" offset="100%"></stop>
        </radialGradient>
        <path d="M203.560166,485.166659 C195.270724,490.651659 145.656982,512.181148 134.588222,438.166659 C123.519463,364.152171 218.587197,365.680968 210.417437,284.986699 C202.247676,204.292431 -12.7655019,256.914842 1.66524725,128.185358 C16.0959964,-0.544125533 461.29641,-35.4327202 590.584912,39.2935279 C594.469297,41.5386274 598.404486,43.8459804 602.381035,46.2138705 C730.760558,122.659207 902.248241,262.200383 799.096738,407.087311 C692.750122,556.462104 751.515595,831.346459 561.872239,798.695207 C372.228883,766.043955 448.123466,504.382001 335.579836,558.295365 C223.036206,612.20873 233.759127,491.503709 233.759127,475.079828 C233.759127,458.655948 211.849607,479.681659 203.560166,485.166659 Z" id="path-2"></path>
        <linearGradient x1="23.6858226%" y1="-40.0906282%" x2="53.4393292%" y2="179.28067%" id="linearGradient-4">
            <stop stop-color="#38C259" offset="0%"></stop>
            <stop stop-color="#1D6D2A" offset="100%"></stop>
        </linearGradient>
        <path d="M0.0731248682,0.770671822 C0.763810242,5.92078031 1.10915293,9.65092552 1.10915293,11.9611074 C1.10915293,14.2712894 0.763810242,16.6761305 0.0731248682,19.1756308 L4.62060427,19.1756308 C5.38027864,14.9090207 6.03218753,11.8415276 6.57633094,9.97315131 C7.12047434,8.10477506 7.98439192,5.96751126 9.16808367,3.56135992 L0.0731248682,0.770671822 Z" id="path-5"></path>
        <path d="M0.984909649,4.46444377 C3.48189931,6.39583211 5.17603689,7.87626179 6.06732241,8.90573281 C6.95860792,9.93520382 7.43356625,10.9601681 7.49219739,11.9806257 L10.1665939,10.3431854 C9.05849014,6.85243297 8.31852423,4.44177436 7.94669612,3.11120956 C7.57486802,1.78064475 7.42336845,1.001247 7.49219739,0.773016293 L0.984909649,3.17611651 L0.984909649,4.46444377 Z" id="path-7"></path>
        <linearGradient x1="0%" y1="17.5473347%" x2="25.2649038%" y2="28.1805654%" id="linearGradient-9">
            <stop stop-color="#409BC5" offset="0%"></stop>
            <stop stop-color="#2B88C1" offset="100%"></stop>
        </linearGradient>
        <linearGradient x1="-3.75010748%" y1="34.3295765%" x2="52.9643851%" y2="50%" id="linearGradient-10">
            <stop stop-color="#5DB4D6" offset="0%"></stop>
            <stop stop-color="#2B88C1" offset="100%"></stop>
        </linearGradient>
        <linearGradient x1="110.481592%" y1="63.8162434%" x2="-33.1344299%" y2="51.7146768%" id="linearGradient-11">
            <stop stop-color="#CD3445" offset="0%"></stop>
            <stop stop-color="#FB4357" offset="100%"></stop>
        </linearGradient>
        <path d="M80.8313822,1.26727282 C72.5628264,-2.03574179 62.8267363,1.26727282 58.8307543,9.79773566 C54.8347723,18.3281985 36.7335898,70.8319927 32.8754445,78.2513216 C29.0172992,85.6706505 15.5677687,118.410943 12.5264972,124.985081 C9.72418488,131.042675 0.92779839,137.095641 0.92779839,138.818023 C0.92779839,140.540405 6.72138904,146.644698 17.4614118,148.462027 C27.1714838,150.105077 43.1671031,141.605326 61.6859624,148.462027 C80.2048216,155.318729 83.3611259,169.470782 85.5712418,164.003135 C95.5280773,139.370735 107.868958,51.9086684 101.209686,30.6360887 C94.5504144,9.36350907 89.0999381,4.57028742 80.8313822,1.26727282 Z" id="path-12"></path>
        <radialGradient cx="37.0514862%" cy="23.3611718%" fx="37.0514862%" fy="23.3611718%" r="47.1972488%" gradientTransform="translate(0.370515,0.233612),scale(1.000000,0.852360),rotate(180.000000),translate(-0.370515,-0.233612)" id="radialGradient-14">
            <stop stop-color="#FFFFFF" offset="0%"></stop>
            <stop stop-color="#FFFFFF" stop-opacity="0" offset="100%"></stop>
        </radialGradient>
        <linearGradient x1="-14.6610875%" y1="41.2369613%" x2="100%" y2="50%" id="linearGradient-15">
            <stop stop-color="#5DB4D6" offset="0%"></stop>
            <stop stop-color="#2B88C1" offset="100%"></stop>
        </linearGradient>
        <path d="M0,0 C5.1315152,49.8749138 9.2426712,77.3293584 12.333468,82.3633336 C16.9696632,89.9142965 59.3561007,89.9142965 66.6624517,82.3633336 C71.5333523,77.3293584 76.4796941,49.8749138 81.5014768,0 C63.6453178,4.03266683 50.0617384,6.04900024 40.7507384,6.04900024 C31.4397385,6.04900024 17.856159,4.03266683 0,0 Z" id="path-16"></path>
        <linearGradient x1="-18.9317844%" y1="60.4433212%" x2="75.620988%" y2="40.3792471%" id="linearGradient-18">
            <stop stop-color="#409BC5" offset="0%"></stop>
            <stop stop-color="#2B88C1" offset="100%"></stop>
        </linearGradient>
        <ellipse id="path-19" cx="40.5" cy="7.5" rx="40.5" ry="7.5"></ellipse>
        <linearGradient x1="40.2510596%" y1="75.2414976%" x2="9.60477759%" y2="0.84477218%" id="linearGradient-21">
            <stop stop-color="#29B44C" offset="0%"></stop>
            <stop stop-color="#3DAA4E" offset="100%"></stop>
        </linearGradient>
        <path d="M5.0596228,199.559424 C2.63085749,160.413366 36.7264929,126.065883 107.346529,96.5169727 C213.276584,52.1936079 214.72423,21.1739813 219.763117,10.2945225 C224.802004,-0.584936238 108.236094,7.0614397 108.236094,45.5538453 C108.236094,84.0462509 71.4975965,62.7531524 52.9907119,69.1904735 C34.4838272,75.6277946 15.9301921,92.7353135 12.3543318,116.701267 C8.77847151,140.667221 5.0596228,163.606648 11.4154261,170.49114" id="path-22"></path>
        <linearGradient x1="15.6825342%" y1="-11.1692789%" x2="63.7410677%" y2="80.9658658%" id="linearGradient-24">
            <stop stop-color="#38C259" offset="0%"></stop>
            <stop stop-color="#1D6D2A" offset="100%"></stop>
        </linearGradient>
        <path d="M2.45075017,95.4942127 C1.29475641,76.82131 17.5228957,60.4373556 51.1351679,46.3423494 C101.553576,25.1998402 102.242597,10.4032934 104.640903,5.21372672 C107.039209,0.0241600471 62.4449668,2.60483346 50.4812103,18.629409 C46.561823,23.8791412 47.7146008,29.8303303 44.1529104,31.2379351 C36.8426982,34.1269818 26.3578098,29.4645229 21.3670923,31.5360502 C12.9344263,35.036248 7.17781909,40.2100588 5.47585467,51.6419617 C3.77389025,63.0738645 2.45075017,78.3445244 5.47585467,81.6284682" id="path-25"></path>
        <linearGradient x1="22.0039034%" y1="-25.0705669%" x2="71.3314101%" y2="129.423455%" id="linearGradient-27">
            <stop stop-color="#38C259" offset="0%"></stop>
            <stop stop-color="#1D6D2A" offset="100%"></stop>
        </linearGradient>
        <path d="M30.4018772,214.198912 C28.1707228,178.237884 59.4922448,146.685005 124.366443,119.540274 C221.677741,78.8231787 223.007603,50.3273931 227.636513,40.3331166 C232.265422,30.3388401 112.971661,35.9655877 112.971661,71.3261468 C112.971661,106.686706 90.616554,92.1712511 81.1997874,88.6337823 C71.7830208,85.0963135 39.5254736,107.730462 36.240555,129.746481 C32.9556364,151.7625 30.4018772,181.171352 36.240555,187.495703" id="path-28"></path>
        <linearGradient x1="38.6476844%" y1="-165.570283%" x2="53.4393292%" y2="179.28067%" id="linearGradient-30">
            <stop stop-color="#38C259" offset="0%"></stop>
            <stop stop-color="#1D6D2A" offset="100%"></stop>
        </linearGradient>
        <linearGradient x1="120.357878%" y1="27.7318236%" x2="-6.41081974%" y2="76.3998856%" id="linearGradient-31">
            <stop stop-color="#CD3445" offset="0%"></stop>
            <stop stop-color="#FB4357" offset="100%"></stop>
        </linearGradient>
        <path d="M230.718346,512.808601 C238.391028,514.924525 247.351743,528.117465 243.165998,553.394563 C238.980252,578.67166 234.554108,603.93933 223.045664,608.542237 C211.537219,613.145143 165.471103,611.316891 162.816645,605.075327 C160.162187,598.833762 162.854198,585.002129 167.791843,585.002129 C172.729488,585.002129 201.330862,589.870401 202.562577,585.002129 C203.794292,580.133858 210.301556,527.676585 214.619087,520.242593 C218.936618,512.808601 223.045664,510.692677 230.718346,512.808601 Z" id="path-32"></path>
    </defs>
    <g id="Artboard-3" stroke="none" stroke-width="1" fill="none" fill-rule="evenodd">
        <g id="Group-7" transform="translate(164.000000, -86.000000)">
            <g id="Path-2-+-Path-2-Mask">
                <mask id="mask-3" fill="white">
                    <use xlink:href="#path-2"></use>
                </mask>
                <use id="Mask" fill="url(#radialGradient-1)" xlink:href="#path-2"></use>
                <path d="M473.303988,180.319299 C532.077403,116.377495 583.46296,102.501993 627.460658,138.692792 C641.75025,150.446856 661.253108,161.851536 685.969232,172.906832 C659.067307,167.201426 642.48121,162.632025 636.210941,159.198626 C616.808139,148.574274 595.707896,133.129442 568.80475,133.129442 C550.869319,133.129442 519.035732,148.859395 473.303988,180.319299 Z" id="Path-17" fill="#FFFFFF" mask="url(#mask-3)" transform="translate(579.636610, 149.695750) rotate(-21.000000) translate(-579.636610, -149.695750) "></path>
                <path d="M220.644862,225.319299 C279.418276,161.377495 330.803833,147.501993 374.801531,183.692792 C389.091123,195.446856 408.593981,206.851536 433.310105,217.906832 C406.40818,212.201426 389.822083,207.632025 383.551814,204.198626 C364.149013,193.574274 343.048769,178.129442 316.145623,178.129442 C298.210192,178.129442 266.376605,193.859395 220.644862,225.319299 Z" id="Path-17" fill="#FFFFFF" mask="url(#mask-3)" transform="translate(326.977483, 194.695750) rotate(-38.000000) translate(-326.977483, -194.695750) "></path>
                <path d="M216.400807,379.089676 C303.759154,284.049253 380.136497,263.425286 445.532837,317.217778 C466.772289,334.688527 495.760522,351.639966 532.497536,368.072095 C492.511639,359.591819 467.858757,352.800052 458.538892,347.696792 C429.699379,331.905198 398.336859,308.948647 358.349147,308.948647 C331.690672,308.948647 284.374559,332.32899 216.400807,379.089676 Z" id="Path-17" fill="#FFFFFF" mask="url(#mask-3)" transform="translate(374.449172, 333.572113) rotate(-16.000000) translate(-374.449172, -333.572113) "></path>
                <path d="M450.187763,468.36014 C508.961178,404.418336 560.346735,390.542834 604.344433,426.733634 C618.634025,438.487697 638.136883,449.892377 662.853007,460.947673 C635.951081,455.242268 619.364984,450.672866 613.094716,447.239468 C593.691914,436.615115 572.591671,421.170284 545.688525,421.170284 C527.753094,421.170284 495.919507,436.900236 450.187763,468.36014 Z" id="Path-17" fill="#FFFFFF" mask="url(#mask-3)" transform="translate(556.520385, 437.736591) rotate(23.000000) translate(-556.520385, -437.736591) "></path>
                <path d="M268.11655,522.589889 C326.889965,458.648086 378.275521,444.772584 422.273219,480.963383 C436.562811,492.717447 456.065669,504.122127 480.781793,515.177422 C453.879868,509.472017 437.293771,504.902615 431.023502,501.469217 C411.620701,490.844865 390.520457,475.400033 363.617311,475.400033 C345.68188,475.400033 313.848293,491.129985 268.11655,522.589889 Z" id="Path-17" fill="#FFFFFF" mask="url(#mask-3)" transform="translate(374.449172, 491.966340) rotate(33.000000) translate(-374.449172, -491.966340) "></path>
            </g>
            <g id="Group-6" transform="translate(87.000000, 450.000000)">
                <path d="M155.314159,259.17243 L175.776458,320.902836 C175.776458,320.902836 173.576484,323.058244 171.462942,320.902836 C170.914467,320.343497 169.255254,316.140701 166.485304,308.294449 C173.192489,337.544545 179.619689,365.314623 179.619689,365.314623 C179.619689,365.314623 178.249826,365.994377 175.5101,367.353887 L140.543364,248.417129 C129.057598,250.997852 113.797931,251.452716 100.133911,250.845837 L59.0684482,365.828762 C55.5750744,366.640406 54.1989509,365.411431 54.9400776,362.141838 C55.6721875,358.912023 65.7809952,321.438885 85.2665006,249.722422 C76.4333697,248.756494 69.7265749,247.415441 67.5059059,246.166915 C62.2332144,243.202451 60.3664891,233.457726 61.9057299,216.932741 L111.96146,201.696158 C159.133164,141.543865 184.644539,114.608847 188.495586,120.891105 C194.272156,130.31449 176.766616,153.489837 173.608322,175.022106 C170.450028,196.554374 170.450028,227.567501 155.339546,241.900747 C154.420279,242.77273 153.317056,243.570863 152.05388,244.299903 C152.683733,247.330614 153.831929,252.550868 155.314159,259.17243 Z" id="Path-6" fill="#FFFFFF"></path>
                <path d="M136.812102,30.9976547 C135.790699,31.0099896 134.882128,30.9762243 134.417202,30.8351153 C132.363855,30.211907 129.997505,30.8351153 127.40754,27.8262774 C124.70606,24.6878899 124.417708,19.2020621 124.417708,15.4743362 C124.417708,8.14821854 128.862816,0.0507574844 137.691529,0.0507574844 C140.032848,0.0507574844 143.087119,1.60352662 143.925772,5.09556325 C144.562631,7.74735445 143.836032,11.374393 143.925772,11.6934863 C144.538323,13.871547 145.869516,13.9999134 147.211224,13.7837867 C147.90679,13.3221826 148.757311,13.0507575 149.675747,13.0507575 C152.027396,13.0507575 153.933785,14.830256 153.933785,17.0253787 C153.933785,19.1252133 152.189313,20.8447242 149.979358,20.990052 C148.719464,24.664831 146.342651,28.1380391 143.378704,29.9088667 C142.687184,33.629329 142.415545,36.2082423 142.563795,37.6456083 C142.680639,38.7784798 143.059684,40.1211637 143.700929,41.6736598 C144.361068,43.2719191 143.600579,45.1027159 142.002323,45.7628619 C141.623266,45.9194282 141.217142,46 140.807023,46 L140.049785,46 C137.840646,46 136.049785,44.209139 136.049785,42 C136.049785,41.906569 136.053059,41.8131666 136.0596,41.7199649 L136.812102,30.9976547 Z" id="Combined-Shape" fill="#FFD09D"></path>
                <g id="Path-16" transform="translate(22.000000, 328.000000)">
                    <mask id="mask-6" fill="white">
                        <use xlink:href="#path-5"></use>
                    </mask>
                    <use id="Mask" fill="url(#linearGradient-4)" xlink:href="#path-5"></use>
                    <circle id="Oval-2" fill="#FFFFFF" mask="url(#mask-6)" cx="6" cy="7" r="1"></circle>
                    <circle id="Oval-2" fill="#FFFFFF" mask="url(#mask-6)" cx="1" cy="11" r="1"></circle>
                    <circle id="Oval-2" fill="#FFFFFF" mask="url(#mask-6)" cx="6" cy="10" r="1"></circle>
                    <circle id="Oval-2" fill="#FFFFFF" mask="url(#mask-6)" cx="4" cy="17" r="1"></circle>
                    <circle id="Oval-2" fill="#FFFFFF" mask="url(#mask-6)" cx="4" cy="13" r="1"></circle>
                    <circle id="Oval-2" fill="#FFFFFF" mask="url(#mask-6)" cx="1" cy="15" r="1"></circle>
                    <circle id="Oval-2" fill="#FFFFFF" mask="url(#mask-6)" cx="3" cy="8" r="1"></circle>
                    <circle id="Oval-2" fill="#FFFFFF" mask="url(#mask-6)" cx="1" cy="6" r="1"></circle>
                </g>
                <ellipse id="Oval-4" fill="#000000" cx="134.5" cy="11" rx="1.5" ry="2"></ellipse>
                <g id="Oval-2-+-Oval-2-+-Oval-2-Mask" transform="translate(59.000000, 289.000000)">
                    <mask id="mask-8" fill="white">
                        <use xlink:href="#path-7"></use>
                    </mask>
                    <use id="Mask" fill="url(#linearGradient-4)" transform="translate(5.575752, 6.376821) rotate(11.000000) translate(-5.575752, -6.376821) " xlink:href="#path-7"></use>
                    <circle id="Oval-2" fill="#FFFFFF" mask="url(#mask-8)" cx="7" cy="9" r="1"></circle>
                    <circle id="Oval-2" fill="#FFFFFF" mask="url(#mask-8)" cx="9" cy="7" r="1"></circle>
                    <circle id="Oval-2" fill="#FFFFFF" mask="url(#mask-8)" cx="7" cy="5" r="1"></circle>
                    <circle id="Oval-2" fill="#FFFFFF" mask="url(#mask-8)" cx="4" cy="6" r="1"></circle>
                </g>
                <path d="M26.4122343,346.536913 C19.7082917,346.569201 15.5029507,347.578603 13.7962115,349.565116 C11.9893591,351.668153 18.6304944,353.464997 26.6308036,353.630192 C29.6819337,353.693194 30.7594474,354.400744 31.7297465,354.420449 C35.7501086,354.502096 34.386532,349.302221 33.3663846,349.086986 C32.3462372,348.871751 33.041145,349.689088 29.2559343,349.10804 C28.2451197,348.952875 27.2972197,348.095833 26.4122343,346.536913 Z" id="Path-9" fill="#E03144" transform="translate(23.968361, 350.479156) rotate(-56.000000) translate(-23.968361, -350.479156) "></path>
                <path d="M61.8229591,178.463536 C27.3964945,180.967599 9.37337668,187.936709 7.75360567,199.370864 C6.13383466,210.80502 25.6334418,244.157193 66.2524271,299.427383 L77.3292336,288.831478 L54.2018653,218.307286 C107.896641,221.854285 134.744029,215.962293 134.744029,200.631311 C134.744029,185.300328 110.437006,177.91107 61.8229591,178.463536 Z" id="Path-7" fill="url(#linearGradient-9)" transform="translate(71.202231, 238.931047) rotate(7.000000) translate(-71.202231, -238.931047) "></path>
                <path d="M150.255972,200.112175 C152.093285,215.831864 123.53136,229.657835 64.5701965,241.590087 L33.7226563,333.914062 L19.5430472,333.914062 C21.6110987,265.401884 24.3851329,225.059392 27.8651497,212.886586 C30.4549782,203.827583 48.8761587,195.132403 80.5497043,185.840367 C87.8076927,183.711098 99.982917,180.343315 117.075377,175.737019 C137.35846,176.267433 148.418659,184.392485 150.255972,200.112175 Z" id="Path-8" fill="url(#linearGradient-10)"></path>
                <path d="M139.5,18.5 L138.5,20.5" id="Line" stroke="#FD7E47" stroke-linecap="round"></path>
                <path d="M141.5,18.5 L140.5,20.5" id="Line" stroke="#FD7E47" stroke-linecap="round"></path>
                <g id="Path-11" transform="translate(61.000000, 39.000000)">
                    <path d="M12.7944594,82.6675569 C15.579039,83.6335284 16.9713287,82.5657165 16.9713287,79.4641212 C16.9713287,74.8117282 2.99205755,75.9401562 2.99205755,81.6782202 C2.99205755,87.4162842 3.56963462,92.5804989 12.7944594,94.2247724 C18.9443426,95.3209547 18.9443426,91.4685496 12.7944594,82.6675569 Z" id="Path-10" fill="#FFD09D" transform="translate(10.199465, 85.490716) scale(1, -1) rotate(-81.000000) translate(-10.199465, -85.490716) "></path>
                    <path d="M83.5835187,8.88023486 C91.9822482,8.88023486 102.351743,22.5814884 98.1659975,45.3105483 C93.9802516,68.0396082 86.6685735,92.5581076 75.160129,96.6970217 C63.6516846,100.835936 21.0160792,102.622602 17.8013509,94.1921871 C14.5866226,85.7617722 15.5407827,78.6518377 21.5153693,78.6518377 C27.489956,78.6518377 56.330862,78.109469 57.5625769,73.7319397 C58.7942918,69.3544103 65.0973843,21.0510782 69.6190868,15.5004363 C74.1407894,9.94979439 75.1847892,8.88023486 83.5835187,8.88023486 Z" id="Path" fill="#FB4357"></path>
                    <g id="Rectangle-6" transform="translate(5.000000, 0.000000)">
                        <mask id="mask-13" fill="white">
                            <use xlink:href="#path-12"></use>
                        </mask>
                        <use id="Mask" fill="url(#linearGradient-11)" xlink:href="#path-12"></use>
                        <path d="M36,46 C43.5265043,50.3520402 55.864994,53.6412373 73.0154691,55.8675914 C90.1659443,58.0939455 100.494121,58.0939455 104,55.8675914 L104,70.8662043 C91.0255872,75.3814428 79.0050498,76.8609347 67.9383878,75.3046801 C56.8717257,73.7484255 46.2255964,69.0814227 36,61.3036719 L36,46 Z" fill="#EFF3F6" opacity="0.200000003" mask="url(#mask-13)"></path>
                    </g>
                </g>
                <path d="M136.711188,13.2546054 C134.537993,12.5236134 132.870285,12.5236134 131.708062,13.2546054" id="Path-4" stroke="#000000" stroke-linecap="round" stroke-linejoin="round" transform="translate(134.209625, 13.206361) rotate(-6.000000) translate(-134.209625, -13.206361) "></path>
                <path d="M64.770602,241.363574 C64.5518377,241.621708 64.4010871,241.853081 64.31835,242.057692 C64.2072754,242.332383 64.0673085,242.819964 63.8984494,243.520435 C63.5668873,241.413965 65.0091519,239.136042 68.2252432,236.686664 C67.5041564,237.542476 66.0390999,238.757359 64.770602,241.363574 Z" id="Path-12" fill="#FFFFFF" fill-rule="nonzero" opacity="0.5"></path>
                <path d="M77.5856094,188.283543 C69.9400083,191.447099 57.3733276,194.876708 46.9018363,199.212566 C39.7130132,202.189193 33.5848716,205.777826 30.4209769,209.259895 C29.588403,210.176196 29.2118763,211.064115 28.6533541,212.572359 C26.9604862,217.143812 22.2267837,247.892386 20.92717,254.755984 C23.5550654,229.871146 26.4284869,214.690523 29.5474344,209.214114 C31.2712339,206.187379 36.7743753,202.258401 46.3752952,198.315005 C51.5555983,196.187293 61.9590364,192.843472 77.5856094,188.283543 Z" id="Path-17" fill="url(#radialGradient-14)" fill-rule="nonzero" opacity="0.5" transform="translate(49.256390, 221.519763) rotate(-3.000000) translate(-49.256390, -221.519763) "></path>
            </g>
            <g id="кружка" transform="translate(150.000000, 561.000000)">
                <path d="M2,7 L5.23355972,31.2641937 C5.36598107,32.2578655 6.21357678,33 7.21603335,33 L17.3267245,33 C18.3151641,33 19.1553582,32.2779326 19.3039854,31.3007311 L23,7 L2,7 Z" id="Path-3" fill="#131313"></path>
                <circle id="Oval-3" fill="#FFFFFF" cx="12.5" cy="16.5" r="3.5"></circle>
                <path d="M22.5864343,2.82499357 C23.9346036,2.9159181 25,4.03830263 25,5.40952381 C25,6.8402043 23.8402043,8 22.4095238,8 L2.59047619,8 C1.1597957,8 -7.12970591e-16,6.8402043 -8.8817842e-16,5.40952381 C-2.10827657e-16,4.05031975 1.04680432,2.93560993 2.37818611,2.82762124 C2.40004596,2.74700626 2.42734456,2.66777258 2.45996937,2.59047619 L2.77949849,1.83343121 C3.24849182,0.722267897 4.33730979,3.33017851e-15 5.5433938,3.10862447e-15 L19.4217178,1.77635684e-15 C20.6278018,4.83585011e-16 21.7166198,0.722267897 22.1856131,1.83343121 L22.5051422,2.59047619 C22.537794,2.66783637 22.5648298,2.74616023 22.5864343,2.82499357 Z" id="Combined-Shape" fill="#FFFFFF"></path>
            </g>
            <path d="M162.147633,753.44814 C151.638308,753.274551 145.643227,753.904659 144.16239,755.338465 C141.235515,758.172385 149.889977,759.370827 158.584655,759.55036 C161.900602,759.61883 164.306411,762.081825 165.77629,761.269707 C167.246169,760.457588 169.275136,755.968756 166.133594,755.87443 C164.133096,755.814364 162.804443,755.005601 162.147633,753.44814 Z" id="Path-9" fill="#E03144" transform="translate(155.685841, 757.426904) rotate(-84.000000) translate(-155.685841, -757.426904) "></path>
            <g id="Path-14" transform="translate(227.000000, 740.000000)">
                <mask id="mask-17" fill="white">
                    <use xlink:href="#path-16"></use>
                </mask>
                <use id="Mask" fill="url(#linearGradient-15)" xlink:href="#path-16"></use>
                <path d="M49.8048236,6.76190448 C60.1444696,31.484052 58.380966,42.2835659 44.514313,39.1604462 C23.7143335,34.4757668 24.5495093,72.6547836 31.8163661,90.5507074 C36.6609373,102.481323 52.1517601,102.481323 78.2888346,90.5507074 L101.463428,29.3226194 L92.2935605,-4.29948193 C77.9660624,-4.29948193 70.8023133,-4.29948193 70.8023133,-4.29948193 C70.8023133,-4.29948193 63.8031501,-0.612353125 49.8048236,6.76190448 Z" fill="url(#linearGradient-18)" mask="url(#mask-17)"></path>
            </g>
            <g id="Path-15" transform="translate(227.000000, 732.000000)">
                <mask id="mask-20" fill="white">
                    <use xlink:href="#path-19"></use>
                </mask>
                <use id="Mask" fill="#2B88C1" xlink:href="#path-19"></use>
            </g>
            <g id="Path-13" transform="translate(367.974372, 643.863449) rotate(2.000000) translate(-367.974372, -643.863449) translate(255.474372, 540.863449)">
                <mask id="mask-23" fill="white">
                    <use xlink:href="#path-22"></use>
                </mask>
                <use id="Mask" fill="url(#linearGradient-21)" transform="translate(112.430196, 102.667833) rotate(-3.000000) translate(-112.430196, -102.667833) " xlink:href="#path-22"></use>
                <path d="M215.450091,4.99889283 C166.734313,17.0532378 136.907851,30.2906159 125.970706,44.7110271 C109.564988,66.3416438 102.141369,93.354564 79.936136,87.7257125 C57.7309032,82.0968609 23.35733,108.445692 18.4681227,140.757408 C15.2086511,162.298551 14.303316,175.415306 15.7521173,180.107673 L236.858019,29.0512479 L215.450091,4.99889283 Z" fill="url(#linearGradient-24)" mask="url(#mask-23)"></path>
            </g>
            <g id="Path-13" transform="translate(268.000000, 677.473395) rotate(-29.000000) translate(-268.000000, -677.473395) translate(214.000000, 627.973395)">
                <mask id="mask-26" fill="white">
                    <use xlink:href="#path-25"></use>
                </mask>
                <use id="Mask" fill="url(#linearGradient-21)" transform="translate(53.563584, 49.144230) rotate(-3.000000) translate(-53.563584, -49.144230) " xlink:href="#path-25"></use>
                <path d="M103.907169,3.28552977 C96.2311031,-2.15786136 68.0776537,9.82184426 60.3156367,23.8248936 C52.5536197,37.8279429 56.6051902,38.8949423 40.0599202,38.3235654 C23.5146503,37.7521886 12.3494469,44.0916269 9.8902513,68.1175313 C8.25078756,84.1348008 7.48270083,90.0124294 7.58599109,85.7504169 L112.507808,13.5962642 C111.891426,10.3513687 109.024546,6.91445719 103.907169,3.28552977 Z" fill="url(#linearGradient-27)" mask="url(#mask-26)"></path>
            </g>
            <g id="Path-5" transform="translate(276.000000, 584.000000)">
                <mask id="mask-29" fill="white">
                    <use xlink:href="#path-28"></use>
                </mask>
                <use id="Mask" fill="url(#linearGradient-21)" transform="translate(129.029212, 125.059977) rotate(28.000000) translate(-129.029212, -125.059977) " xlink:href="#path-28"></use>
                <path d="M259.210766,95.9594377 C213.87226,82.2327962 180.806345,79.5784002 160.013021,87.9962497 C128.823035,100.623024 129.022348,112.551705 115.017946,104.255571 C101.013545,95.9594377 74.5536101,88.2952935 54.9216859,99.5015044 C41.8337365,106.972312 28.5618852,120.146923 15.1061322,139.025338 L237.227366,131.002418 L259.210766,95.9594377 Z" fill="url(#linearGradient-30)" mask="url(#mask-29)"></path>
            </g>
            <path d="M160.810492,586.24739 C160.213079,586.018065 159.905192,590.237767 158.930526,591.144871 C158.426761,591.613715 157.264168,589.791985 157.264168,588.511268 C157.264168,586.42707 157.49963,580.75132 156.02897,580.887815 C154.847471,580.997472 154.331583,585.30966 153.316224,587.95476 C151.827564,591.832852 151.522998,601.15549 158.975601,602.483874 C166.428204,603.812259 161.407906,586.476716 160.810492,586.24739 Z" id="Path-10" fill="#FFD09D" transform="translate(157.741381, 591.720940) rotate(-21.000000) translate(-157.741381, -591.720940) "></path>
            <mask id="mask-33" fill="white">
                <use xlink:href="#path-32"></use>
            </mask>
            <use id="Path" fill="url(#linearGradient-31)" xlink:href="#path-32"></use>
            <path d="M201.681956,589.86215 C201.463192,590.120285 201.312441,590.351658 201.229704,590.556269 C201.118629,590.83096 200.978663,591.318541 200.809804,592.019011 C200.478241,589.912542 201.920506,587.634619 205.136597,585.185241 C204.41551,586.041053 202.950454,587.255936 201.681956,589.86215 Z" id="Path-12" fill="#FFFFFF" fill-rule="nonzero" opacity="0.5" mask="url(#mask-33)" transform="translate(202.949960, 588.602126) rotate(120.000000) translate(-202.949960, -588.602126) "></path>
            <path d="M199,560 C203.056023,560.722102 211.389357,561.528423 224,562.418965 C236.610643,563.309506 244.943977,563.309506 249,562.418965 L249,577.985269 C239.459991,579.791364 230.62136,580.383161 222.484109,579.760659 C214.346857,579.138157 206.518821,577.271356 199,574.160256 L199,560 Z" id="Rectangle-6" fill="#EFF3F6" opacity="0.200000003" mask="url(#mask-33)"></path>
        </g>
    </g>
</svg>